<?xml version="1.0" standalone="no"?>
<!DOCTYPE svg PUBLIC "-//W3C//DTD SVG 1.1//EN"
"http://www.w3.org/Graphics/SVG/1.1/DTD/svg11.dtd">

<svg width="692" height="380" view_box="0 0 692 380"
xmlns="http://www.w3.org/2000/svg"
xmlns:link="http://www.w3.org/1999/xlink">\n\n<desc>Généré par Mocodo 2.3.9 le Mon, 10 Jan 2022 11:25:36</desc>

<rect id="frame" x="0" y="0" width="692" height="380" fill="none" stroke="none" stroke-width="0"/>

<!-- Association Commander -->
<line x1="203" y1="73" x2="377" y2="73" stroke="#726f83" stroke-width="1"/>
<text x="279" y="89.0" fill="#726f83" font-family="Futura" font-size="11">1,N</text>
<line x1="539" y1="73" x2="377" y2="73" stroke="#726f83" stroke-width="1"/>
<text x="456" y="65.0" fill="#726f83" font-family="Futura" font-size="11">1,N</text>
<g id="association-Commander">
	<path d="M 437 36 a 14 14 90 0 1 14 14 V 64 h -148 V 50 a 14 14 90 0 1 14 -14" fill="#b2bba4" stroke="#b2bba4" stroke-width="0"/>
	<path d="M 451 64.0 v 32 a 14 14 90 0 1 -14 14 H 317 a 14 14 90 0 1 -14 -14 V 64.0 H 148" fill="#ccd6ba" stroke="#ccd6ba" stroke-width="0"/>
	<rect x="303" y="36" width="148" height="74" fill="none" rx="14" stroke="#85956b" stroke-width="1.5"/>
	<line x1="303" y1="64" x2="451" y2="64" stroke="#85956b" stroke-width="1.5"/>
	<text x="324" y="57.3" fill="#27360c" font-family="Copperplate" font-size="18">Commander</text>
	<text x="310" y="82.1" fill="#607734" font-family="Gill Sans" font-size="15">id_commander</text>
	<text x="310" y="99.1" fill="#607734" font-family="Gill Sans" font-size="15">quantite_commander</text>
</g>

<!-- Association Produire -->
<line x1="61" y1="307" x2="203" y2="190" stroke="#726f83" stroke-width="1"/>
<text x="118" y="274.04470584153387" fill="#726f83" font-family="Futura" font-size="11">0,N</text>
<line x1="203" y1="73" x2="203" y2="190" stroke="#726f83" stroke-width="1"/>
<text x="208.0" y="153" fill="#726f83" font-family="Futura" font-size="11">1,N</text>
<g id="association-Produire">
	<path d="M 239 161 a 14 14 90 0 1 14 14 V 189 h -100 V 175 a 14 14 90 0 1 14 -14" fill="#b2bba4" stroke="#b2bba4" stroke-width="0"/>
	<path d="M 253 189.0 v 16 a 14 14 90 0 1 -14 14 H 167 a 14 14 90 0 1 -14 -14 V 189.0 H 100" fill="#ccd6ba" stroke="#ccd6ba" stroke-width="0"/>
	<rect x="153" y="161" width="100" height="58" fill="none" rx="14" stroke="#85956b" stroke-width="1.5"/>
	<line x1="153" y1="189" x2="253" y2="189" stroke="#85956b" stroke-width="1.5"/>
	<text x="160" y="182.3" fill="#27360c" font-family="Copperplate" font-size="18">Produire</text>
</g>

<!-- Association Dater -->
<line x1="539" y1="73" x2="377" y2="190" stroke="#726f83" stroke-width="1"/>
<text x="485.90592450239745" y="127" fill="#726f83" font-family="Futura" font-size="11">1,1</text>
<line x1="203" y1="307" x2="377" y2="190" stroke="#726f83" stroke-width="1"/>
<text x="228.76416876458308" y="269" fill="#726f83" font-family="Futura" font-size="11">0,N</text>
<g id="association-Dater">
	<path d="M 397 161 a 14 14 90 0 1 14 14 V 189 h -68 V 175 a 14 14 90 0 1 14 -14" fill="#b2bba4" stroke="#b2bba4" stroke-width="0"/>
	<path d="M 411 189.0 v 16 a 14 14 90 0 1 -14 14 H 357 a 14 14 90 0 1 -14 -14 V 189.0 H 68" fill="#ccd6ba" stroke="#ccd6ba" stroke-width="0"/>
	<rect x="343" y="161" width="68" height="58" fill="none" rx="14" stroke="#85956b" stroke-width="1.5"/>
	<line x1="343" y1="189" x2="411" y2="189" stroke="#85956b" stroke-width="1.5"/>
	<text x="350" y="182.3" fill="#27360c" font-family="Copperplate" font-size="18">Dater</text>
</g>

<!-- Association Facturer -->
<line x1="539" y1="73" x2="539" y2="190" stroke="#726f83" stroke-width="1"/>
<text x="544.0" y="127" fill="#726f83" font-family="Futura" font-size="11">1,1</text>
<line x1="377" y1="307" x2="539" y2="190" stroke="#726f83" stroke-width="1"/>
<text x="435" y="279.2435313400043" fill="#726f83" font-family="Futura" font-size="11">1,N</text>
<g id="association-Facturer">
	<path d="M 575 161 a 14 14 90 0 1 14 14 V 189 h -100 V 175 a 14 14 90 0 1 14 -14" fill="#b2bba4" stroke="#b2bba4" stroke-width="0"/>
	<path d="M 589 189.0 v 16 a 14 14 90 0 1 -14 14 H 503 a 14 14 90 0 1 -14 -14 V 189.0 H 100" fill="#ccd6ba" stroke="#ccd6ba" stroke-width="0"/>
	<rect x="489" y="161" width="100" height="58" fill="none" rx="14" stroke="#85956b" stroke-width="1.5"/>
	<line x1="489" y1="189" x2="589" y2="189" stroke="#85956b" stroke-width="1.5"/>
	<text x="496" y="182.3" fill="#27360c" font-family="Copperplate" font-size="18">Facturer</text>
</g>

<!-- Association Etre -->
<line x1="377" y1="307" x2="539" y2="307" stroke="#726f83" stroke-width="1"/>
<text x="435" y="323.0" fill="#726f83" font-family="Futura" font-size="11">1,1</text>
<line x1="640" y1="307" x2="539" y2="307" stroke="#726f83" stroke-width="1"/>
<text x="573" y="323.0" fill="#726f83" font-family="Futura" font-size="11">1,N</text>
<g id="association-Etre">
	<path d="M 554 278 a 14 14 90 0 1 14 14 V 306 h -58 V 292 a 14 14 90 0 1 14 -14" fill="#b2bba4" stroke="#b2bba4" stroke-width="0"/>
	<path d="M 568 306.0 v 16 a 14 14 90 0 1 -14 14 H 524 a 14 14 90 0 1 -14 -14 V 306.0 H 58" fill="#ccd6ba" stroke="#ccd6ba" stroke-width="0"/>
	<rect x="510" y="278" width="58" height="58" fill="none" rx="14" stroke="#85956b" stroke-width="1.5"/>
	<line x1="510" y1="306" x2="568" y2="306" stroke="#85956b" stroke-width="1.5"/>
	<text x="517" y="299.3" fill="#27360c" font-family="Copperplate" font-size="18">Etre</text>
</g>

<!-- Entity Produits -->
<g id="entity-Produits">
	<g id="frame-Produits">
		<rect x="132" y="9" width="142" height="30" fill="#97b8ff" stroke="#97b8ff" stroke-width="0"/>
		<rect x="132" y="39.0" width="142" height="98" fill="#c0d4ff" stroke="#c0d4ff" stroke-width="0"/>
		<rect x="132" y="9" width="142" height="128" fill="none" stroke="#578dff" stroke-width="1.5"/>
		<line x1="132" y1="39" x2="274" y2="39" stroke="#578dff" stroke-width="1.5"/>
	</g>
	<text x="161" y="30.299999999999997" fill="#131114" font-family="Copperplate" font-size="18">Produits</text>
	<text x="140" y="56.1" fill="#3e3c42" font-family="Gill Sans" font-size="15">id_produit</text>
	<line x1="140" y1="59" x2="207" y2="59" stroke="#3e3c42" stroke-width="1"/>
	<text x="140" y="73.1" fill="#3e3c42" font-family="Gill Sans" font-size="15">ref_produit</text>
	<text x="140" y="90.1" fill="#3e3c42" font-family="Gill Sans" font-size="15">nom_produit</text>
	<text x="140" y="107.0" fill="#3e3c42" font-family="Gill Sans" font-size="15">description_produit</text>
	<text x="140" y="124.0" fill="#3e3c42" font-family="Gill Sans" font-size="15">statut_produit</text>
</g>

<!-- Entity Factures -->
<g id="entity-Factures">
	<g id="frame-Factures">
		<rect x="480" y="35" width="118" height="30" fill="#97b8ff" stroke="#97b8ff" stroke-width="0"/>
		<rect x="480" y="65.0" width="118" height="46" fill="#c0d4ff" stroke="#c0d4ff" stroke-width="0"/>
		<rect x="480" y="35" width="118" height="76" fill="none" stroke="#578dff" stroke-width="1.5"/>
		<line x1="480" y1="65" x2="598" y2="65" stroke="#578dff" stroke-width="1.5"/>
	</g>
	<text x="497" y="56.3" fill="#131114" font-family="Copperplate" font-size="18">Factures</text>
	<text x="488" y="82.1" fill="#3e3c42" font-family="Gill Sans" font-size="15">id_facture</text>
	<line x1="488" y1="85" x2="552" y2="85" stroke="#3e3c42" stroke-width="1"/>
	<text x="488" y="99.1" fill="#3e3c42" font-family="Gill Sans" font-size="15">numero_facture</text>
</g>

<!-- Entity Usines -->
<g id="entity-Usines">
	<g id="frame-Usines">
		<rect x="9" y="252" width="104" height="30" fill="#97b8ff" stroke="#97b8ff" stroke-width="0"/>
		<rect x="9" y="282.0" width="104" height="80" fill="#c0d4ff" stroke="#c0d4ff" stroke-width="0"/>
		<rect x="9" y="252" width="104" height="110" fill="none" stroke="#578dff" stroke-width="1.5"/>
		<line x1="9" y1="282" x2="113" y2="282" stroke="#578dff" stroke-width="1.5"/>
	</g>
	<text x="30" y="273.3" fill="#131114" font-family="Copperplate" font-size="18">Usines</text>
	<text x="17" y="299.1" fill="#3e3c42" font-family="Gill Sans" font-size="15">id_usine</text>
	<line x1="17" y1="302" x2="70" y2="302" stroke="#3e3c42" stroke-width="1"/>
	<text x="17" y="316.1" fill="#3e3c42" font-family="Gill Sans" font-size="15">nom_usine</text>
	<text x="17" y="333.1" fill="#3e3c42" font-family="Gill Sans" font-size="15">adresse_usine</text>
	<text x="17" y="350.0" fill="#3e3c42" font-family="Gill Sans" font-size="15">ville_usine</text>
</g>

<!-- Entity Calendrier -->
<g id="entity-Calendrier">
	<g id="frame-Calendrier">
		<rect x="142" y="277" width="122" height="30" fill="#97b8ff" stroke="#97b8ff" stroke-width="0"/>
		<rect x="142" y="307.0" width="122" height="30" fill="#c0d4ff" stroke="#c0d4ff" stroke-width="0"/>
		<rect x="142" y="277" width="122" height="60" fill="none" stroke="#578dff" stroke-width="1.5"/>
		<line x1="142" y1="307" x2="264" y2="307" stroke="#578dff" stroke-width="1.5"/>
	</g>
	<text x="150" y="298.3" fill="#131114" font-family="Copperplate" font-size="18">Calendrier</text>
	<text x="150" y="324.1" fill="#3e3c42" font-family="Gill Sans" font-size="15">date_calendrier</text>
	<line x1="150" y1="327" x2="248" y2="327" stroke="#3e3c42" stroke-width="1"/>
</g>

<!-- Entity Clients -->
<g id="entity-Clients">
	<g id="frame-Clients">
		<rect x="324" y="243" width="106" height="30" fill="#97b8ff" stroke="#97b8ff" stroke-width="0"/>
		<rect x="324" y="273.0" width="106" height="98" fill="#c0d4ff" stroke="#c0d4ff" stroke-width="0"/>
		<rect x="324" y="243" width="106" height="128" fill="none" stroke="#578dff" stroke-width="1.5"/>
		<line x1="324" y1="273" x2="430" y2="273" stroke="#578dff" stroke-width="1.5"/>
	</g>
	<text x="341" y="264.3" fill="#131114" font-family="Copperplate" font-size="18">Clients</text>
	<text x="332" y="290.1" fill="#3e3c42" font-family="Gill Sans" font-size="15">id_client</text>
	<line x1="332" y1="293" x2="386" y2="293" stroke="#3e3c42" stroke-width="1"/>
	<text x="332" y="307.1" fill="#3e3c42" font-family="Gill Sans" font-size="15">nom_client</text>
	<text x="332" y="324.1" fill="#3e3c42" font-family="Gill Sans" font-size="15">adresse_client</text>
	<text x="332" y="341.0" fill="#3e3c42" font-family="Gill Sans" font-size="15">ville_client</text>
	<text x="332" y="358.0" fill="#3e3c42" font-family="Gill Sans" font-size="15">pays_client</text>
</g>

<!-- Entity Types -->
<g id="entity-Types">
	<g id="frame-Types">
		<rect x="597" y="269" width="86" height="30" fill="#97b8ff" stroke="#97b8ff" stroke-width="0"/>
		<rect x="597" y="299.0" width="86" height="46" fill="#c0d4ff" stroke="#c0d4ff" stroke-width="0"/>
		<rect x="597" y="269" width="86" height="76" fill="none" stroke="#578dff" stroke-width="1.5"/>
		<line x1="597" y1="299" x2="683" y2="299" stroke="#578dff" stroke-width="1.5"/>
	</g>
	<text x="614" y="290.3" fill="#131114" font-family="Copperplate" font-size="18">Types</text>
	<text x="605" y="316.1" fill="#3e3c42" font-family="Gill Sans" font-size="15">id_types</text>
	<line x1="605" y1="319" x2="658" y2="319" stroke="#3e3c42" stroke-width="1"/>
	<text x="605" y="333.1" fill="#3e3c42" font-family="Gill Sans" font-size="15">nom_types</text>
</g>
</svg>